<?xml version="1.0" encoding="UTF-8"?>
<svg width="239px" height="280px" viewBox="0 0 239 280" version="1.1" xmlns="http://www.w3.org/2000/svg" xmlns:xlink="http://www.w3.org/1999/xlink">
    <!-- Generator: Sketch 50.2 (55047) - http://www.bohemiancoding.com/sketch -->
    <title>wscr</title>
    <desc>Created with Sketch.</desc>
    <defs></defs>
    <g id="Page-1" stroke="none" stroke-width="1" fill="none" fill-rule="evenodd">
        <path d="M237.781941,153.207251 C185.90776,139.241733 146.90776,132.258975 120.781941,132.258975 C94.9077599,132.258975 55.9077599,139.241733 3.78194115,153.207251 C4.78388352,145.643229 14.2075868,131.181755 19.0031491,123.61147 C28.3395563,108.872996 43.2055017,100.105531 59.1185881,96.6364261 C75.0316745,93.1673214 81.429029,91.4023408 117.197406,91.4023408 C117.698365,91.3726589 118.89321,91.3726589 120.781941,91.4023408 C122.670672,91.3726589 123.865517,91.3726589 124.366476,91.4023408 C160.134853,91.4023408 166.532208,93.1673214 182.445294,96.6364261 C198.358381,100.105531 213.224326,108.872996 222.560733,123.61147 C227.356296,131.181755 236.779999,145.643229 237.781941,153.207251 Z" id="Combined-Shape" stroke="#000000" fill="#000000"></path>
        <path d="M237.781941,203.233343 C185.6295,217.19886 146.6295,224.181619 120.781941,224.181619 C94.6294995,224.181619 55.6294995,217.19886 3.78194115,203.233343 C4.78388352,195.669321 14.2075868,181.207847 19.0031491,173.637561 C28.3395563,158.899088 43.2055017,150.131623 59.1185881,146.662518 C75.0316745,143.193413 81.429029,141.428433 117.197406,141.428433 C117.698365,141.398751 118.89321,141.398751 120.781941,141.428433 C122.670672,141.398751 123.865517,141.398751 124.366476,141.428433 C160.134853,141.428433 166.532208,143.193413 182.445294,146.662518 C198.358381,150.131623 213.224326,158.899088 222.560733,173.637561 C227.356296,181.207847 236.779999,195.669321 237.781941,203.233343 Z" id="Combined-Shape" stroke="#000000" fill="#000000" transform="translate(120.781941, 182.793895) scale(1, -1) translate(-120.781941, -182.793895) "></path>
        <g id="Group-2" transform="translate(11.156219, 78.000000)" stroke="#000000">
            <polygon id="Combined-Shape" fill="#000000" points="4.04650877 14.0412378 15.3237038 14.0412378 15.3237038 30.0805184 19.1241843 30.0805184 19.1241843 63.2679012 0.246028265 63.2679012 0.246028265 30.0805184 4.04650877 30.0805184"></polygon>
            <g id="Group" transform="translate(13.535137, 7.000000) scale(-1, 1) translate(-13.535137, -7.000000) translate(11.035137, 0.000000)" stroke-linecap="square">
                <path d="M2.09448463,7.67977697 L2.09448463,13.2650693" id="Line"></path>
                <path d="M2.44356114,0.698161543 L2.44356114,6.98161543" id="Line" stroke-width="0.5"></path>
            </g>
            <g id="Group" transform="translate(3.188969, 2.792646)" stroke-linecap="square">
                <path d="M1.6755877,6.14382158 L1.6755877,10.6120555" id="Line"></path>
                <path d="M1.95484891,0.558529234 L1.95484891,5.58529234" id="Line" stroke-width="0.5"></path>
            </g>
        </g>
        <g id="Group-3" transform="translate(37.831181, 3.424616)" stroke="#000000">
            <polygon id="Path-3" fill="#000000" points="0.0562895662 116.721847 0.0562895662 87.4557822 5.52821533 87.4557822 5.52821533 24.6772926 21.9031404 24.6772926 21.9031404 53.61654 37.3770474 53.61654 37.3770474 116.721847"></polygon>
            <g id="Group" transform="translate(7.809976, 0.000000)" stroke-linecap="square">
                <path d="M1.76199511,13.0681304 L1.76199511,23.6401011" id="Line"></path>
                <path d="M1.76199511,0 L1.76199511,12.0402999" id="Line" stroke-width="0.5"></path>
            </g>
            <g id="Group" transform="translate(15.738945, 0.000000)" stroke-linecap="square">
                <path d="M1.76199511,13.0681304 L1.76199511,23.6401011" id="Line"></path>
                <path d="M1.76199511,0 L1.76199511,12.0402999" id="Line" stroke-width="0.5"></path>
            </g>
        </g>
        <path d="M101.514811,64.5966065 L103.982009,64.5966065 L103.982009,60.0220016 L109.503463,69.588628 L109.503463,99.9246155 L103.982009,99.9246155 L103.982009,79.4135797 C103.982009,79.0033982 103.57081,78.8132393 102.74841,78.8431029 C101.926011,78.8132393 101.514811,79.0033982 101.514811,79.4135797 L101.514811,99.9246155 L95.9933575,99.9246155 L95.9933575,69.588628 L101.514811,60.0220016 L101.514811,64.5966065 Z" id="Combined-Shape" stroke="#000000" fill="#000000"></path>
        <path d="M127.132145,44.2557247 L127.132145,101.489294 L114,101.489294 L114,44.2557247 L120.537343,55.1823288 L127.132145,44.2557247 Z M114.341154,43.3187781 L120.566072,32.6083556 L126.792062,43.320621 L120.537343,53.6794093 L114.341154,43.3187781 Z" id="Combined-Shape" fill="#000000"></path>
        <g id="Group-6" transform="translate(154.200212, 10.522002)" stroke="#000000">
            <polygon id="Path-2" fill="#000000" points="0.502184913 98.4017933 0.502184913 64.0969962 5.22512973 64.0969962 5.22512973 18.8545274 14.0210728 18.8545274 14.0210728 13.0813516 22.7901927 13.0813516 22.7901927 48.8304743 29.8632617 48.8304743 29.8632617 82.7411768 34.5944598 82.7411768 34.5944598 98.4017933"></polygon>
            <path d="M18.4166146,12.0859033 L18.4166146,0.575519207" id="Line-4" stroke-linecap="square"></path>
        </g>
        <g id="Group-4" transform="translate(205.268614, 32.608356)" stroke="#000000">
            <polygon id="Combined-Shape" fill="#000000" points="5.78520944 27.0480773 16.5951036 27.0480773 21.6064464 98.4065535 0.773866648 98.4065535"></polygon>
            <path d="M6.76471048,27.6738156 L6.76471048,0.61497368" id="Line-6" stroke-width="0.8" stroke-linecap="square"></path>
            <path d="M15.5095742,27.6738156 L15.5095742,0.61497368" id="Line-6" stroke-width="0.8" stroke-linecap="square"></path>
        </g>
        <text id="WEST-SUBURBAN" font-family="Poppins-ExtraBold, Poppins" font-size="27" font-weight="600" fill="#000000">
            <tspan x="3.5660724" y="257.995398">WEST SUBURBAN</tspan>
        </text>
        <text id="COMMUNITY-ROASTER" font-family="Poppins-ExtraBold, Poppins" font-size="20" font-weight="600" fill="#000000">
            <tspan x="7.03126788" y="276.866927">COMMUNITY ROASTER</tspan>
        </text>
    </g>
</svg>